<svg xmlns="http://www.w3.org/2000/svg" viewBox="0 0 68 68" id="alphabetic-blocks"><path fill="#F58466" d="M34 38v23.5c0 2.2-1.8 4-4 4H6.5c-2.2 0-4-1.8-4-4V38c0-2.2 1.8-4 4-4H30c2.2 0 4 1.8 4 4z"></path><path fill="#45BEA9" d="M65.5 38v23.5c0 2.2-1.8 4-4 4H38c-2.2 0-4-1.8-4-4V38c0-2.2 1.8-4 4-4h23.5c2.2 0 4 1.8 4 4z"></path><path fill="#FECB79" d="M49.7 6.5V30c0 2.2-1.8 4-4 4H22.2c-2.2 0-4-1.8-4-4V6.5c0-2.2 1.8-4 4-4h23.5c2.3 0 4 1.8 4 4z"></path><path fill="#FFF" d="M46.8 8.8c-.3 0-.5-.2-.5-.5C46.3 7 45.2 6 44 6c-.3 0-.5-.2-.5-.5s.2-.5.5-.5c1.8 0 3.3 1.5 3.3 3.3 0 .3-.2.5-.5.5zm15.8 31.4c-.3 0-.5-.2-.5-.5 0-1.3-1-2.3-2.3-2.3-.3 0-.5-.2-.5-.5s.2-.5.5-.5c1.8 0 3.3 1.5 3.3 3.3 0 .3-.2.5-.5.5zm-31.7 0c-.3 0-.5-.2-.5-.5 0-1.3-1-2.3-2.3-2.3-.3 0-.5-.2-.5-.5s.2-.5.5-.5c1.8 0 3.3 1.5 3.3 3.3 0 .3-.2.5-.5.5z"></path><path fill="#424242" d="M6.5 66H30c1.8 0 3.3-1 4-2.5.7 1.5 2.2 2.5 4 2.5h23.5c2.5 0 4.5-2 4.5-4.5v-6c0-.3-.2-.5-.5-.5s-.5.2-.5.5v6c0 1.9-1.6 3.5-3.5 3.5H38c-1.9 0-3.5-1.6-3.5-3.5V38c0-1.9 1.6-3.5 3.5-3.5h23.6c1.9 0 3.5 1.6 3.5 3.5v11.5c0 .3.2.5.5.5s.5-.2.5-.5V38c0-2.5-2-4.5-4.5-4.5h-13c1-.8 1.7-2.1 1.7-3.5V6.5c0-2.5-2-4.5-4.5-4.5H34.3c-.3 0-.5.2-.5.5s.2.5.5.5h11.5c1.9 0 3.5 1.6 3.5 3.5V30c0 1.9-1.6 3.5-3.5 3.5H22.3c-1.9 0-3.5-1.6-3.5-3.5V6.5c0-1.9 1.6-3.5 3.5-3.5h6c.3 0 .5-.2.5-.5s-.3-.5-.5-.5h-6c-2.5 0-4.5 2-4.5 4.5V30c0 1.4.7 2.7 1.7 3.5h-13C4 33.5 2 35.5 2 38v6c0 .3.2.5.5.5s.5-.2.5-.5v-6c0-1.9 1.6-3.5 3.5-3.5H30c1.9 0 3.5 1.6 3.5 3.5v23.5c0 1.9-1.6 3.5-3.5 3.5H6.5C4.6 65 3 63.4 3 61.5V50c0-.3-.2-.5-.5-.5s-.5.2-.5.5v11.5C2 64 4 66 6.5 66zm26.3-31.5h2.4c-.5.4-.9.9-1.2 1.5-.3-.6-.7-1.1-1.2-1.5z"></path><path fill="#424242" d="M2.5 48.5c.3 0 .5-.2.5-.5v-2c0-.3-.2-.5-.5-.5s-.5.2-.5.5v2c0 .3.2.5.5.5zm63 2.5c-.3 0-.5.2-.5.5v2c0 .3.2.5.5.5s.5-.2.5-.5v-2c0-.3-.2-.5-.5-.5zM30.3 3h2c.3 0 .5-.2.5-.5s-.3-.5-.5-.5h-2c-.3 0-.5.2-.5.5s.2.5.5.5zM39 25.8c.3 0 .5-.2.5-.5V15.2c0-2.5-2-4.5-4.5-4.5h-2c-2.5 0-4.5 2-4.5 4.5v10.1c0 .3.2.5.5.5s.5-.2.5-.5v-4.8h9v4.8c0 .3.2.5.5.5zm-9.5-6.3v-4.3c0-1.9 1.6-3.5 3.5-3.5h2c1.9 0 3.5 1.6 3.5 3.5v4.3h-9zm-9.6 22.8h-6.7c-.3 0-.5.2-.5.5v14c0 .3.2.5.5.5h6.7c2.2 0 4-1.8 4-4 0-1.5-.9-2.8-2.1-3.5 3.6-2 2.1-7.5-1.9-7.5zm0 13.9h-6.2v-6h6.2c3.9.1 3.9 6 0 6zm0-6.9h-6.2v-6h6.2c1.6 0 3 1.3 3 3-.1 1.6-1.4 3-3 3zm26.8-6h6.2c.8 0 1.5.7 1.5 1.5 0 .3.2.5.5.5s.5-.2.5-.5c0-1.4-1.1-2.5-2.5-2.5h-6.2c-1.4 0-2.5 1.1-2.5 2.5v9.9c0 1.4 1.1 2.5 2.5 2.5h6.2c1.4 0 2.5-1.1 2.5-2.5 0-.3-.2-.5-.5-.5s-.5.2-.5.5c0 .8-.7 1.5-1.5 1.5h-6.2c-.8 0-1.5-.7-1.5-1.5v-9.9c0-.8.6-1.5 1.5-1.5z"></path></svg>